<svg width="179" height="58" viewBox="0 0 179 58" fill="none" xmlns="http://www.w3.org/2000/svg">
<g clip-path="url(#clip0_1296_11328)">
<path d="M126.943 37.1772C120.192 37.1772 114.734 31.7195 114.734 24.9687V15.4795C114.734 8.7287 120.192 3.271 126.943 3.271C133.694 3.271 139.152 8.7287 139.152 15.4795V24.9687C139.152 31.7195 133.694 37.1772 126.943 37.1772Z" stroke="#F7EC13" stroke-width="6" stroke-miterlimit="10" stroke-linecap="round"/>
<path d="M38.9864 17.5714V24.9687C38.9864 31.7195 33.4142 37.1773 26.663 37.1773C19.9117 37.1773 14.4536 31.7195 14.4536 24.9687V15.1753L3.82274 10.6304" stroke="#F7EC13" stroke-width="6" stroke-miterlimit="10" stroke-linecap="round"/>
<path d="M70.5367 37.1772C63.7854 37.1772 58.3274 31.7195 58.3274 24.9687V15.4795C58.3274 8.7287 63.7854 3.271 70.5367 3.271C77.288 3.271 82.7461 8.7287 82.7461 15.4795V24.9687C82.7461 31.7195 77.288 37.1772 70.5367 37.1772Z" stroke="#F7EC13" stroke-width="6" stroke-miterlimit="10" stroke-linecap="round"/>
<path d="M114.734 15.4796V24.9688C114.734 31.7196 109.276 37.1773 102.524 37.1773C95.7731 37.1773 90.3151 31.7196 90.3151 24.9688V2.9668" stroke="#F7EC13" stroke-width="6" stroke-miterlimit="10" stroke-linecap="round"/>
<path d="M70.6128 17.6094V24.9688C70.6128 31.7196 65.1547 37.1773 58.4034 37.1773C51.6522 37.1773 46.1941 31.7196 46.1941 24.9688V2.9668" stroke="#F7EC13" stroke-width="6" stroke-miterlimit="10" stroke-linecap="round"/>
<path d="M175.533 11.7524V24.9688C175.533 31.7197 170.075 37.1774 163.324 37.1774C156.573 37.1774 151.115 31.7197 151.115 24.9688V15.2515V11.7524" stroke="#F7EC13" stroke-width="6" stroke-miterlimit="10" stroke-linecap="round"/>
<path d="M163.609 11.7524V24.9688C163.609 31.7197 158.151 37.1774 151.4 37.1774C144.649 37.1774 139.19 31.7197 139.19 24.9688" stroke="#F7EC13" stroke-width="6" stroke-miterlimit="10" stroke-linecap="round"/>
<path d="M22.9735 20.405C24.7591 20.405 26.2065 18.9577 26.2065 17.1722C26.2065 15.3868 24.7591 13.9395 22.9735 13.9395C21.188 13.9395 19.7405 15.3868 19.7405 17.1722C19.7405 18.9577 21.188 20.405 22.9735 20.405Z" fill="#F7EC13"/>
<path d="M30.7327 20.405C32.5183 20.405 33.9657 18.9577 33.9657 17.1722C33.9657 15.3868 32.5183 13.9395 30.7327 13.9395C28.9472 13.9395 27.4997 15.3868 27.4997 17.1722C27.4997 18.9577 28.9472 20.405 30.7327 20.405Z" fill="#F7EC13"/>
<path d="M57.1673 50.4126C56.844 50.4126 56.5587 50.5267 56.3305 50.7549C56.1023 50.9831 55.9882 51.2683 55.9882 51.5916C55.9882 51.9909 56.1594 52.2762 56.5207 52.4853C56.6728 52.5804 57.1483 52.7326 57.909 52.9608C58.5746 53.1509 59.05 53.3981 59.3543 53.6644C59.8108 54.0827 60.039 54.6532 60.039 55.3949C60.039 56.1175 59.7727 56.726 59.2592 57.2394C58.7458 57.7529 58.1372 58.0001 57.4145 58.0001H55.2275C55.0373 58.0001 54.8852 57.924 54.733 57.7909C54.5999 57.6578 54.5238 57.4867 54.5238 57.2965V57.2585C54.5238 57.0683 54.5999 56.9162 54.733 56.764C54.8662 56.6309 55.0373 56.5549 55.2275 56.5549H57.4716C57.7949 56.5549 58.0801 56.4408 58.3084 56.2126C58.5366 55.9844 58.6507 55.6991 58.6507 55.3758C58.6507 54.9955 58.4795 54.6913 58.1182 54.4821C57.947 54.387 57.4906 54.2158 56.7299 53.9686C56.0643 53.7594 55.5888 53.5122 55.3036 53.246C54.8471 52.8467 54.6189 52.2762 54.6189 51.5916C54.6189 50.869 54.8662 50.2604 55.3796 49.747C55.8931 49.2335 56.5017 48.9863 57.2243 48.9863H58.7648C58.955 48.9863 59.1261 49.0624 59.2592 49.1955C59.3924 49.3286 59.4684 49.4998 59.4684 49.6899V49.728C59.4684 49.9181 59.3924 50.0703 59.2592 50.2224C59.1261 50.3555 58.955 50.4316 58.7648 50.4316H57.1673V50.4126Z" fill="#58595B"/>
<path d="M66.2387 57.2965C66.2387 57.4867 66.1627 57.6578 66.0295 57.7909C65.8964 57.924 65.7253 58.0001 65.5351 58.0001C65.3449 58.0001 65.1928 57.924 65.0406 57.7909C64.9075 57.6578 64.8314 57.5057 64.8314 57.2965V51.7627C64.8314 51.0021 65.0977 50.3555 65.6492 49.804C66.2007 49.2526 66.8473 48.9863 67.608 48.9863C68.5209 48.9863 69.2055 49.2906 69.6809 49.8991C70.1373 49.2906 70.822 48.9863 71.7348 48.9863C72.4955 48.9863 73.1421 49.2526 73.6937 49.804C74.2452 50.3555 74.5114 51.0021 74.5114 51.7627V57.2965C74.5114 57.4867 74.4353 57.6578 74.3022 57.7909C74.1691 57.924 73.9979 58.0001 73.8078 58.0001H73.7887C73.5986 58.0001 73.4274 57.924 73.2943 57.7909C73.1612 57.6578 73.0851 57.5057 73.0851 57.2965V51.7627C73.0851 51.3824 72.952 51.0591 72.6857 50.7929C72.4195 50.5267 72.0962 50.3935 71.7158 50.3935C71.3355 50.3935 71.0122 50.5267 70.7459 50.7929C70.4797 51.0591 70.3465 51.3824 70.3465 51.7627V57.2965C70.3465 57.4867 70.2705 57.6578 70.1374 57.7909C70.0042 57.924 69.8521 58.0001 69.6429 58.0001H69.6239C69.4337 58.0001 69.2625 57.924 69.1294 57.7909C68.9963 57.6578 68.9202 57.5057 68.9202 57.2965V51.7627C68.9202 51.3824 68.7871 51.0591 68.5209 50.7929C68.2546 50.5267 67.9313 50.3935 67.5509 50.3935C67.1706 50.3935 66.8473 50.5267 66.581 50.7929C66.3148 51.0591 66.1817 51.3824 66.1817 51.7627V57.2965H66.2387Z" fill="#58595B"/>
<path d="M85.4846 57.2965C85.4846 57.4867 85.4085 57.6578 85.2754 57.7909C85.1423 57.924 84.9711 58.0001 84.781 58.0001H84.7619C84.5718 58.0001 84.4196 57.924 84.2675 57.7909C84.1344 57.6578 84.0583 57.5057 84.0583 57.2965V54.7293H80.9394V57.2965C80.9394 57.4867 80.8633 57.6578 80.7302 57.7909C80.5971 57.924 80.4259 58.0001 80.2357 58.0001H80.2167C80.0265 58.0001 79.8744 57.924 79.7223 57.7909C79.5891 57.6578 79.5131 57.5057 79.5131 57.2965V51.9719C79.5131 51.1542 79.7983 50.4506 80.3879 49.8611C80.9774 49.2906 81.6621 48.9863 82.4798 48.9863C83.2976 48.9863 84.0012 49.2716 84.5908 49.8611C85.1803 50.4506 85.4656 51.1542 85.4656 51.9719V57.2965H85.4846ZM84.0773 53.3411V51.9909C84.0773 51.5536 83.9252 51.1922 83.6209 50.888C83.3166 50.5837 82.9362 50.4316 82.4988 50.4316C82.0614 50.4316 81.7001 50.5837 81.3958 50.888C81.0915 51.1922 80.9394 51.5726 80.9394 51.9909V53.3411H84.0773Z" fill="#58595B"/>
<path d="M91.247 49.0054C91.4371 49.0054 91.5893 49.0814 91.7414 49.2145C91.8745 49.3477 91.9506 49.5188 91.9506 49.709V52.8087H95.1456V49.709C95.1456 49.5188 95.2216 49.3477 95.3548 49.2145C95.4879 49.0814 95.6591 49.0054 95.8492 49.0054H95.8683C96.0584 49.0054 96.2106 49.0814 96.3627 49.2145C96.4958 49.3477 96.5719 49.5188 96.5719 49.709V57.2965C96.5719 57.4867 96.4958 57.6578 96.3627 57.7909C96.2296 57.9241 96.0584 58.0001 95.8683 58.0001H95.8492C95.6591 58.0001 95.5069 57.9241 95.3548 57.7909C95.2216 57.6578 95.1456 57.5057 95.1456 57.2965V54.1968H91.9506V57.2965C91.9506 57.4867 91.8745 57.6578 91.7414 57.7909C91.6083 57.9241 91.4371 58.0001 91.247 58.0001H91.2279C91.0378 58.0001 90.8856 57.9241 90.7335 57.7909C90.6004 57.6578 90.5243 57.5057 90.5243 57.2965V49.709C90.5243 49.5188 90.6004 49.3477 90.7335 49.2145C90.8856 49.0814 91.0378 49.0054 91.247 49.0054Z" fill="#58595B"/>
<path d="M107.545 57.2965C107.545 57.4867 107.469 57.6578 107.336 57.7909C107.203 57.924 107.032 58.0001 106.841 58.0001H106.822C106.632 58.0001 106.48 57.924 106.328 57.7909C106.195 57.6578 106.119 57.5057 106.119 57.2965V54.7293H102.981V57.2965C102.981 57.4867 102.905 57.6578 102.772 57.7909C102.639 57.924 102.467 58.0001 102.277 58.0001H102.258C102.068 58.0001 101.916 57.924 101.764 57.7909C101.631 57.6578 101.555 57.5057 101.555 57.2965V51.9719C101.555 51.1542 101.84 50.4506 102.429 49.8611C103.019 49.2906 103.704 48.9863 104.521 48.9863C105.339 48.9863 106.043 49.2716 106.632 49.8611C107.222 50.4506 107.507 51.1542 107.507 51.9719V57.2965H107.545ZM106.119 53.3411V51.9909C106.119 51.5536 105.967 51.1922 105.662 50.888C105.358 50.5837 104.978 50.4316 104.54 50.4316C104.103 50.4316 103.742 50.5837 103.437 50.888C103.133 51.1922 102.981 51.5726 102.981 51.9909V53.3411H106.119Z" fill="#58595B"/>
<path d="M118.537 57.2965C118.537 57.4867 118.461 57.6578 118.328 57.7909C118.195 57.924 118.024 58.0001 117.834 58.0001H117.815C117.624 58.0001 117.472 57.924 117.32 57.7909C117.187 57.6578 117.111 57.5057 117.111 57.2965V54.7293H113.973V57.2965C113.973 57.4867 113.897 57.6578 113.764 57.7909C113.631 57.924 113.46 58.0001 113.269 58.0001C113.079 58.0001 112.927 57.924 112.775 57.7909C112.642 57.6578 112.566 57.5057 112.566 57.2965V51.9719C112.566 51.1542 112.851 50.4506 113.441 49.8611C114.03 49.2906 114.715 48.9863 115.532 48.9863C116.35 48.9863 117.054 49.2716 117.643 49.8611C118.233 50.4506 118.518 51.1542 118.518 51.9719V57.2965H118.537ZM117.111 53.3411V51.9909C117.111 51.5536 116.959 51.1922 116.655 50.888C116.35 50.5837 115.97 50.4316 115.532 50.4316C115.095 50.4316 114.734 50.5837 114.429 50.888C114.125 51.1922 113.973 51.5726 113.973 51.9909V53.3411H117.111Z" fill="#58595B"/>
<path d="M128.769 49.709C128.769 49.8991 128.693 50.0703 128.56 50.2034C128.426 50.3365 128.255 50.4126 128.065 50.4126H126.658V57.2965C126.658 57.4867 126.582 57.6578 126.449 57.7909C126.316 57.924 126.144 58.0001 125.954 58.0001H125.935C125.745 58.0001 125.574 57.924 125.441 57.7909C125.308 57.6578 125.232 57.4867 125.232 57.2965V50.4126H123.824C123.634 50.4126 123.482 50.3365 123.33 50.2034C123.197 50.0703 123.121 49.8991 123.121 49.709V49.6899C123.121 49.4998 123.197 49.3286 123.33 49.1955C123.463 49.0624 123.634 48.9863 123.824 48.9863H128.046C128.236 48.9863 128.407 49.0624 128.541 49.1955C128.712 49.3476 128.769 49.5188 128.769 49.709Z" fill="#58595B"/>
</g>
<defs>
<clipPath id="clip0_1296_11328">
<rect width="177.625" height="58" fill="white" transform="translate(0.875)"/>
</clipPath>
</defs>
</svg>
